<svg width="30" height="29" viewBox="0 0 30 29" fill="none" xmlns="http://www.w3.org/2000/svg">
<path d="M21.25 24.1667C21.25 22.1647 18.4518 20.5417 15 20.5417C11.5482 20.5417 8.75 22.1647 8.75 24.1667M26.25 20.5422C26.25 19.0557 24.7074 17.7782 22.5 17.2188M3.75 20.5422C3.75 19.0557 5.29262 17.7782 7.5 17.2188M22.5 12.3687C23.2672 11.7049 23.75 10.7404 23.75 9.66675C23.75 7.66472 22.0711 6.04175 20 6.04175C19.0396 6.04175 18.1634 6.39078 17.5 6.96479M7.5 12.3687C6.73281 11.7049 6.25 10.7404 6.25 9.66675C6.25 7.66472 7.92893 6.04175 10 6.04175C10.9604 6.04175 11.8366 6.39078 12.5 6.96479M15 16.9167C12.9289 16.9167 11.25 15.2938 11.25 13.2917C11.25 11.2897 12.9289 9.66675 15 9.66675C17.0711 9.66675 18.75 11.2897 18.75 13.2917C18.75 15.2938 17.0711 16.9167 15 16.9167Z" stroke="#D1D1D1" stroke-width="2" stroke-linecap="round" stroke-linejoin="round"/>
</svg>
