<svg width="23" height="23" viewBox="0 0 23 23" fill="none" xmlns="http://www.w3.org/2000/svg">
<path d="M0.43934 0.439064C1.02511 -0.146269 1.97477 -0.14644 2.56043 0.439064L11.2128 9.09141L19.744 0.561134C20.3298 -0.024652 21.2793 -0.024652 21.8651 0.561134C22.4509 1.14692 22.4509 2.09645 21.8651 2.68223L13.3339 11.2125L21.6522 19.5318C22.2378 20.1176 22.2379 21.0672 21.6522 21.6529C21.0665 22.2385 20.1169 22.2384 19.5311 21.6529L11.2128 13.3346L2.77332 21.774C2.18754 22.3597 1.23799 22.3598 0.65223 21.774C0.0664722 21.1883 0.0665286 20.2387 0.65223 19.6529L9.09168 11.2135L0.43934 2.56113C-0.146447 1.97535 -0.146447 1.02485 0.43934 0.439064Z" fill="white"/>
</svg>
