<svg width="60" height="60" viewBox="0 0 60 60" fill="none" xmlns="http://www.w3.org/2000/svg">
<g clip-path="url(#clip0_82_728)">
<mask id="mask0_82_728" style="mask-type:luminance" maskUnits="userSpaceOnUse" x="0" y="0" width="60" height="60">
<path d="M60 0H0V60H60V0Z" fill="white"/>
</mask>
<g mask="url(#mask0_82_728)">
<path fill-rule="evenodd" clip-rule="evenodd" d="M30.0249 0C13.4219 0 0 13.5209 0 30.2479C0 43.6187 8.59985 54.9369 20.5301 58.9428C22.0218 59.2439 22.5681 58.2919 22.5681 57.4911C22.5681 56.7899 22.5189 54.3862 22.5189 51.8819C14.1667 53.685 12.4275 48.2761 12.4275 48.2761C11.0852 44.7705 9.09644 43.8695 9.09644 43.8695C6.36278 42.0165 9.29556 42.0165 9.29556 42.0165C12.3279 42.2169 13.9191 45.1214 13.9191 45.1214C16.603 49.7284 20.9277 48.4266 22.6676 47.6253C22.916 45.6721 23.7119 44.32 24.5569 43.569C17.8954 42.8678 10.8867 40.2637 10.8867 28.6451C10.8867 25.3399 12.079 22.6357 13.9682 20.5326C13.6701 19.7816 12.626 16.6761 14.2669 12.5196C14.2669 12.5196 16.8021 11.7183 22.5183 15.6245C24.9656 14.9624 27.4895 14.6256 30.0249 14.6228C32.56 14.6228 35.1442 14.9738 37.5308 15.6245C43.2476 11.7183 45.7828 12.5196 45.7828 12.5196C47.4236 16.6761 46.3789 19.7816 46.0807 20.5326C48.0198 22.6357 49.1629 25.3399 49.1629 28.6451C49.1629 40.2637 42.1543 42.8174 35.443 43.569C36.537 44.5204 37.481 46.323 37.481 49.1776C37.481 53.2339 37.4318 56.4894 37.4318 57.4905C37.4318 58.2919 37.9787 59.2439 39.4697 58.9434C51.4 54.9364 59.9999 43.6187 59.9999 30.2479C60.049 13.5209 46.578 0 30.0249 0Z" fill="white"/>
</g>
</g>
<defs>
<clipPath id="clip0_82_728">
<rect width="60" height="60" fill="white"/>
</clipPath>
</defs>
</svg>
