<svg width="60" height="60" viewBox="0 0 60 60" fill="none" xmlns="http://www.w3.org/2000/svg">
<path d="M4.09091 52.5112H13.6364V29.3294L0 19.1021V48.4203C0 50.6839 1.83409 52.5112 4.09091 52.5112Z" fill="white"/>
<path d="M46.3635 52.5112H55.9089C58.1726 52.5112 59.9999 50.6771 59.9999 48.4203V19.1021L46.3635 29.3294" fill="white"/>
<path d="M46.3635 11.6025V29.3298L59.9999 19.1025V13.648C59.9999 8.58888 54.2249 5.70479 50.1817 8.73888" fill="white"/>
<path d="M13.6365 29.3294V11.6021L30.0001 23.8748L46.3637 11.6021V29.3294L30.0001 41.602" fill="white"/>
<path d="M0 13.648V19.1025L13.6364 29.3298V11.6025L9.81819 8.73888C5.76819 5.70479 0 8.58888 0 13.648Z" fill="white"/>
</svg>
