<svg width="60" height="60" viewBox="0 0 60 60" fill="none" xmlns="http://www.w3.org/2000/svg">
<g clip-path="url(#clip0_82_734)">
<path d="M45.988 17.5551C44.0012 17.5591 42.3857 15.9504 42.3818 13.9636C42.378 11.9768 43.9866 10.3613 45.9743 10.3574C47.9621 10.3535 49.5776 11.9632 49.5815 13.95C49.5843 15.9368 47.9757 17.5513 45.988 17.5551Z" fill="white"/>
<path fill-rule="evenodd" clip-rule="evenodd" d="M30.0286 45.4027C21.5227 45.4192 14.6127 38.5375 14.5962 30.0294C14.5797 21.5234 21.4633 14.6122 29.9693 14.5957C38.4773 14.5792 45.3882 21.465 45.4047 29.9701C45.4212 38.4781 38.5356 45.3862 30.0286 45.4027ZM29.9801 20.0011C24.4591 20.0109 19.9898 24.4967 19.9996 30.0187C20.0102 35.5417 24.497 40.01 30.018 39.9994C35.5408 39.9886 40.0102 35.5037 39.9995 29.9807C39.9887 24.4577 35.5021 19.9905 29.9801 20.0011Z" fill="white"/>
<path fill-rule="evenodd" clip-rule="evenodd" d="M10.298 1.6162C12.2031 0.86969 14.3834 0.358405 17.5754 0.207745C20.7752 0.0541815 21.7967 0.0191775 29.9421 0.00363155C38.0895 -0.0119144 39.111 0.0191715 42.3109 0.161084C45.504 0.299107 47.6851 0.802621 49.5941 1.54136C51.5693 2.30244 53.245 3.32695 54.9149 4.99008C56.5848 6.65511 57.6131 8.32505 58.3839 10.2973C59.1295 12.2044 59.6408 14.3826 59.7924 17.5767C59.944 20.7756 59.9809 21.7961 59.9965 29.9426C60.0121 38.0881 59.979 39.1106 59.839 42.3125C59.7 45.5036 59.1975 47.6857 58.4587 49.5939C57.6957 51.569 56.6731 53.2448 55.0101 54.9146C53.347 56.5856 51.6751 57.613 49.703 58.3848C47.7959 59.1294 45.6176 59.6406 42.4256 59.7932C39.2257 59.9449 38.2043 59.9809 30.0559 59.9964C21.9115 60.0119 20.89 59.9809 17.6901 59.8399C14.497 59.6999 12.3149 59.1974 10.4069 58.4596C8.43179 57.6956 6.75605 56.674 5.08614 55.0099C3.41528 53.3459 2.38596 51.675 1.61615 49.7028C0.869644 47.7966 0.360267 45.6174 0.207681 42.4263C0.0550896 39.2254 0.0191376 38.2029 0.00359766 30.0574C-0.0120023 21.9109 0.0200916 20.8902 0.160041 17.6904C0.301 14.4964 0.801591 12.3151 1.54032 10.4051C2.30332 8.43097 3.32586 6.7562 4.99091 5.08533C6.65401 3.41541 8.32582 2.38504 10.298 1.6162ZM12.3538 53.4198C13.4124 53.827 15.0006 54.313 17.9254 54.4404C21.0901 54.5774 22.0379 54.6075 30.0461 54.592C38.0574 54.5774 39.0051 54.5434 42.169 54.3946C45.0909 54.2556 46.6791 53.7638 47.7346 53.3516C49.1354 52.8044 50.1326 52.1502 51.1804 51.1015C52.2283 50.0487 52.8766 49.0485 53.419 47.6479C53.8271 46.5884 54.3123 44.9991 54.4395 42.0744C54.5785 38.9114 54.6076 37.9627 54.5921 29.9524C54.5776 21.9439 54.5435 20.9952 54.3929 17.8314C54.2549 14.9085 53.764 13.3202 53.3509 12.2656C52.8036 10.863 52.1515 9.86764 51.0997 8.81882C50.048 7.77001 49.0479 7.12361 47.6452 6.58125C46.5886 6.17204 44.9985 5.68795 42.0757 5.56064C38.9109 5.42164 37.9621 5.39342 29.9519 5.409C21.9436 5.42455 20.9959 5.45661 17.832 5.60633C14.9082 5.7453 13.3219 6.23616 12.2644 6.64929C10.8647 7.19652 9.86741 7.84681 8.81864 8.89951C7.77176 9.95218 7.12345 10.9504 6.58109 12.354C6.17483 13.4116 5.68586 15.0017 5.5605 17.9246C5.42245 21.0895 5.39332 22.0382 5.40886 30.0466C5.42346 38.057 5.45746 39.0057 5.60619 42.1676C5.74324 45.0925 6.23795 46.6787 6.64915 47.7373C7.19636 49.136 7.8486 50.1334 8.89933 51.1821C9.95201 52.227 10.9522 52.8774 12.3538 53.4198Z" fill="white"/>
</g>
<defs>
<clipPath id="clip0_82_734">
<rect width="60" height="60" fill="white"/>
</clipPath>
</defs>
</svg>
