<svg width="60" height="60" viewBox="0 0 60 60" fill="none" xmlns="http://www.w3.org/2000/svg">
<g clip-path="url(#clip0_82_720)">
<mask id="mask0_82_720" style="mask-type:luminance" maskUnits="userSpaceOnUse" x="0" y="0" width="60" height="60">
<path d="M60 0H0V60H60V0Z" fill="white"/>
</mask>
<g mask="url(#mask0_82_720)">
<path d="M30 0C46.5685 0 60 13.4315 60 30C60 46.5685 46.5685 60 30 60C13.4315 60 0 46.5685 0 30C0 13.4315 13.4315 0 30 0ZM42.2656 18.0605C41.1373 18.0805 39.4058 18.6825 31.0752 22.1475C28.1574 23.3611 22.3255 25.8733 13.5801 29.6836C12.1602 30.2482 11.4156 30.8007 11.3477 31.3408C11.2176 32.3779 12.7112 32.7008 14.5898 33.3115C16.1214 33.8093 18.1817 34.3918 19.2529 34.415C20.2246 34.436 21.3096 34.0361 22.5068 33.2139C30.6781 27.6981 34.8964 24.9097 35.1611 24.8496C35.348 24.8072 35.607 24.7544 35.7822 24.9102C35.9573 25.0662 35.9405 25.3612 35.9219 25.4404C35.7733 26.0738 28.097 33.0559 27.6553 33.5146C25.9674 35.2678 24.0474 36.3403 27.0088 38.292C29.5717 39.981 31.0638 41.0584 33.7041 42.7891C35.3913 43.8951 36.714 45.207 38.4561 45.0469C39.2576 44.9731 40.0863 44.2195 40.5068 41.9717C41.5007 36.6586 43.4539 25.1461 43.9053 20.4023C43.9448 19.9868 43.8955 19.4551 43.8555 19.2217C43.8155 18.9882 43.732 18.6555 43.4287 18.4092C43.0693 18.1176 42.5139 18.0562 42.2656 18.0605Z" fill="white"/>
</g>
</g>
<defs>
<clipPath id="clip0_82_720">
<rect width="60" height="60" fill="white"/>
</clipPath>
</defs>
</svg>
