<svg width="60" height="60" viewBox="0 0 60 60" fill="none" xmlns="http://www.w3.org/2000/svg">
<g clip-path="url(#clip0_82_706)">
<mask id="mask0_82_706" style="mask-type:luminance" maskUnits="userSpaceOnUse" x="0" y="0" width="60" height="60">
<path d="M60 0H0V60H60V0Z" fill="white"/>
</mask>
<g mask="url(#mask0_82_706)">
<path d="M31.2002 0C44.7765 0 51.5645 0.000150195 55.7822 4.21777C59.9998 8.43543 60 15.2234 60 28.7998V31.2002C60 44.7766 59.9998 51.5645 55.7822 55.7822C51.5645 59.9998 44.7766 60 31.2002 60H28.7998C15.2234 60 8.43543 59.9998 4.21777 55.7822C0.000150196 51.5645 0 44.7765 0 31.2002V28.7998C0 15.2234 0.000131268 8.43543 4.21777 4.21777C8.43543 0.00013127 15.2234 0 28.7998 0H31.2002ZM10.125 18.25C10.45 33.8499 18.25 43.2254 31.9248 43.2256H32.7002V34.2998C37.7252 34.7999 41.5247 38.4756 43.0498 43.2256H50.1504C48.2004 36.1257 43.075 32.2003 39.875 30.7002C43.075 28.8503 47.5744 24.35 48.6494 18.25H42.2002C40.8002 23.2 36.6502 27.7 32.7002 28.125V18.25H26.25V35.5498C22.25 34.5498 17.2006 29.6999 16.9756 18.25H10.125Z" fill="white"/>
</g>
</g>
<defs>
<clipPath id="clip0_82_706">
<rect width="60" height="60" fill="white"/>
</clipPath>
</defs>
</svg>
