<svg width="60" height="60" viewBox="0 0 60 60" fill="none" xmlns="http://www.w3.org/2000/svg">
<g clip-path="url(#clip0_82_714)">
<mask id="mask0_82_714" style="mask-type:luminance" maskUnits="userSpaceOnUse" x="0" y="0" width="60" height="60">
<path d="M60 0H0V60H60V0Z" fill="white"/>
</mask>
<g mask="url(#mask0_82_714)">
<path d="M0 60L4.2175 44.5925C1.615 40.0825 0.2475 34.97 0.25 29.7275C0.2575 13.3375 13.595 0 29.9825 0C37.935 0.0025 45.4 3.1 51.015 8.72C56.6275 14.34 59.7175 21.81 59.715 29.755C59.7075 46.1475 46.37 59.485 29.9825 59.485C25.0075 59.4825 20.105 58.235 15.7625 55.865L0 60ZM16.4925 50.4825C20.6825 52.97 24.6825 54.46 29.9725 54.4625C43.5925 54.4625 54.6875 43.3775 54.695 29.75C54.7 16.095 43.6575 5.025 29.9925 5.02C16.3625 5.02 5.275 16.105 5.27 29.73C5.2675 35.2925 6.8975 39.4575 9.635 43.815L7.1375 52.935L16.4925 50.4825ZM44.96 36.8225C44.775 36.5125 44.28 36.3275 43.535 35.955C42.7925 35.5825 39.14 33.785 38.4575 33.5375C37.7775 33.29 37.2825 33.165 36.785 33.91C36.29 34.6525 34.865 36.3275 34.4325 36.8225C34 37.3175 33.565 37.38 32.8225 37.0075C32.08 36.635 29.685 35.8525 26.8475 33.32C24.64 31.35 23.1475 28.9175 22.715 28.1725C22.2825 27.43 22.67 27.0275 23.04 26.6575C23.375 26.325 23.7825 25.79 24.155 25.355C24.5325 24.925 24.655 24.615 24.905 24.1175C25.1525 23.6225 25.03 23.1875 24.8425 22.815C24.655 22.445 23.17 18.7875 22.5525 17.3C21.9475 15.8525 21.335 16.0475 20.88 16.025L19.455 16C18.96 16 18.155 16.185 17.475 16.93C16.795 17.675 14.875 19.47 14.875 23.1275C14.875 26.785 17.5375 30.3175 17.9075 30.8125C18.28 31.3075 23.145 38.8125 30.5975 42.03C32.37 42.795 33.755 43.2525 34.8325 43.595C36.6125 44.16 38.2325 44.08 39.5125 43.89C40.94 43.6775 43.9075 42.0925 44.5275 40.3575C45.1475 38.62 45.1475 37.1325 44.96 36.8225Z" fill="white"/>
</g>
</g>
<defs>
<clipPath id="clip0_82_714">
<rect width="60" height="60" fill="white"/>
</clipPath>
</defs>
</svg>
