<svg width="60" height="60" viewBox="0 0 60 60" fill="none" xmlns="http://www.w3.org/2000/svg">
<g clip-path="url(#clip0_82_738)">
<mask id="mask0_82_738" style="mask-type:luminance" maskUnits="userSpaceOnUse" x="0" y="0" width="60" height="60">
<path d="M60 0H0V60H60V0Z" fill="white"/>
</mask>
<g mask="url(#mask0_82_738)">
<path d="M30.0593 8.86328C30.0593 8.86328 48.8099 8.86364 53.5007 10.125C54.7747 10.4724 55.9352 11.1483 56.866 12.085C57.797 13.0219 58.4662 14.1874 58.8054 15.4639C60.0598 20.1754 60.0593 30 60.0593 30C60.0593 30.0399 60.0573 39.8343 58.8054 44.5361C58.4662 45.8126 57.797 46.9782 56.866 47.915C55.9352 48.8517 54.7747 49.5276 53.5007 49.875C48.8099 51.1364 30.0593 51.1367 30.0593 51.1367C29.9936 51.1367 11.3021 51.1341 6.6189 49.875C5.34472 49.5276 4.18359 48.8518 3.25269 47.915C2.32176 46.9782 1.65343 45.8126 1.31421 44.5361C0.0622412 39.8343 0.0593314 30.0398 0.0593262 30C0.0593262 30 0.0597488 20.1754 1.31421 15.4639C1.65343 14.1874 2.32176 13.0219 3.25269 12.085C4.18361 11.1481 5.34467 10.4724 6.6189 10.125C11.302 8.86592 29.9936 8.86329 30.0593 8.86328ZM23.9236 38.9219L39.6052 30L23.9236 21.0781V38.9219Z" fill="white"/>
</g>
</g>
<defs>
<clipPath id="clip0_82_738">
<rect width="60" height="60" fill="white"/>
</clipPath>
</defs>
</svg>
